<?xml version="1.0" encoding="utf-8"?>
<!-- Generator: Adobe Illustrator 21.0.2, SVG Export Plug-In . SVG Version: 6.00 Build 0)  -->
<svg version="1.1" id="Layer_1" xmlns="http://www.w3.org/2000/svg" xmlns:xlink="http://www.w3.org/1999/xlink" x="0px" y="0px"
	 viewBox="0 0 1007.2 1024" style="enable-background:new 0 0 1007.2 1024;" xml:space="preserve">
<style type="text/css">
	.st0{fill:#BDCCD4;}
	.st1{opacity:0.32;enable-background:new    ;}
	.st2{fill:#F2F2F2;}
	.st3{fill:#E6E6E6;}
	.st4{fill:url(#SVGID_1_);}
	.st5{fill:url(#SVGID_2_);}
	.st6{fill:#FFFFFF;}
	.st7{fill:none;}
	.st8{fill:#264880;}
	.st9{fill:#3867B0;}
	.st10{fill:url(#SVGID_3_);}
	.st11{fill:#FFFFFF;stroke:#000000;stroke-miterlimit:10;}
	.st12{fill:url(#SVGID_4_);}
	.st13{fill:url(#SVGID_5_);}
	.st14{fill:url(#SVGID_6_);}
	.st15{fill:url(#SVGID_7_);}
	.st16{fill:url(#SVGID_8_);}
	.st17{fill:#BBCBD3;}
	.st18{fill:url(#SVGID_9_);}
	.st19{fill:url(#SVGID_10_);}
	.st20{fill:#689BBC;}
</style>
<g>
	<g>
		<path class="st0" d="M649.8,148.3C638.2,78.7,573.6,31.6,505.6,43.2c-22.1,3.8-56.1,20.6-92.1,38.3c-6.3,3.1-12.7,6.2-18.9,9.3
			c-20.9-9.5-44.6-13.1-68.8-8.9c-23.4,4-44.1,14.7-60.5,29.8c-5.5-0.6-11.1-1.3-16.6-2c-39.7-4.8-77.2-9.3-99.4-5.5
			C81.3,115.9,35.4,182,47,251.6c11.5,69.6,76.2,116.7,144.2,105.1c20.4-3.5,52.4-16.1,86.2-29.4c7.9-3.1,15.8-6.2,23.6-9.2
			c10.7,4.4,22,7.3,33.8,8.5c1.5,2,3.1,4,4.6,5.9c1.9,2.4,3.7,4.8,5.5,7.1l36.7-0.9c-1.9-5.6-4.2-10.6-6.7-15.1
			c19.8-4.9,37.4-14.7,51.7-27.9c9.8,0.3,19.9,0.6,29.9,1c36.3,1.3,70.5,2.6,91-0.9C615.4,284,661.3,217.9,649.8,148.3z"/>
	</g>
	<g>
		<g>
			<g class="st1">
				<ellipse class="st2" cx="312.3" cy="963.7" rx="237.5" ry="54.1"/>
			</g>
			<g class="st1">
				<ellipse class="st3" cx="312.3" cy="963.7" rx="118.8" ry="27.1"/>
			</g>
			<g>
				<g>
					
						<linearGradient id="SVGID_1_" gradientUnits="userSpaceOnUse" x1="94.3247" y1="214.8849" x2="411.3007" y2="214.8849" gradientTransform="matrix(0.9998 1.857699e-02 -1.857699e-02 0.9998 104.7808 419.0903)">
						<stop  offset="0" style="stop-color:#1E75BB"/>
						<stop  offset="0.2856" style="stop-color:#207FC2"/>
						<stop  offset="0.7644" style="stop-color:#2499D5"/>
						<stop  offset="1" style="stop-color:#27A8E0"/>
					</linearGradient>
					<path class="st4" d="M513.9,539.7c0.8-40.4-13.3-77.7-37.2-106.5c-40.6,71.3-147,125.7-280.5,143
						c30.8,103.1,149.5,270,149.5,270S512.2,629.4,513.9,539.7z"/>
					
						<linearGradient id="SVGID_2_" gradientUnits="userSpaceOnUse" x1="131.6066" y1="116.6491" x2="345.9231" y2="-72.4568" gradientTransform="matrix(0.9998 1.857699e-02 -1.857699e-02 0.9998 104.7808 419.0903)">
						<stop  offset="0" style="stop-color:#1E75BB"/>
						<stop  offset="0.2856" style="stop-color:#207FC2"/>
						<stop  offset="0.7644" style="stop-color:#2499D5"/>
						<stop  offset="1" style="stop-color:#27A8E0"/>
					</linearGradient>
					<path class="st5" d="M476.6,433.1c-29.2-35.2-72.9-58-122.2-58.9c-89.7-1.7-163.8,69.7-165.5,159.5
						c-0.2,12.1,2.5,26.5,7.2,42.5C329.7,558.8,436.1,504.4,476.6,433.1z"/>
				</g>
				
					<ellipse transform="matrix(1.857903e-02 -0.9998 0.9998 1.857903e-02 -54.74 742.236)" class="st6" cx="350.7" cy="399" rx="26.9" ry="62.8"/>
				<path class="st7" d="M350.5,411.7c-28.4-0.5-44.9-9.4-48-13.6c3.2-4.1,20.1-12.4,48.5-11.8c28.4,0.5,44.9,9.4,48,13.6
					C395.8,403.9,379,412.2,350.5,411.7z"/>
				<g>
					<path class="st8" d="M348.4,386.2c-26.8,0-42.7,7.9-45.9,11.8c2.6,3.6,15.1,10.6,36.4,12.9c0.2-0.7,0.5-1.3,0.8-1.9
						C343.5,401,346.3,393.4,348.4,386.2z"/>
					<path class="st8" d="M399,399.8c-1.8-2.5-8.2-6.5-18.9-9.6c-1.4,6.4-3.2,12.9-5.4,19.5C388.5,407.2,396.9,402.6,399,399.8z"/>
					<path class="st9" d="M351,386.2c-0.9,0-1.8,0-2.6,0c-2.1,7.2-4.9,14.8-8.6,22.8c-0.3,0.6-0.5,1.3-0.8,1.9
						c3.6,0.4,7.5,0.7,11.6,0.7c9.3,0.2,17.4-0.6,24.2-1.9c2.2-6.6,4.1-13.1,5.4-19.5C372.6,388.1,362.9,386.4,351,386.2z"/>
				</g>
				
					<linearGradient id="SVGID_3_" gradientUnits="userSpaceOnUse" x1="198.0257" y1="-69.9652" x2="277.6092" y2="-69.9652" gradientTransform="matrix(0.9998 1.857699e-02 -1.857699e-02 0.9998 104.7808 419.0903)">
					<stop  offset="0" style="stop-color:#CBDFF3"/>
					<stop  offset="5.628450e-02" style="stop-color:#C2DBF1"/>
					<stop  offset="0.1499" style="stop-color:#A8D1ED"/>
					<stop  offset="0.2694" style="stop-color:#7FC1E6"/>
					<stop  offset="0.4085" style="stop-color:#46AADD"/>
					<stop  offset="0.5007" style="stop-color:#1C9AD6"/>
					<stop  offset="0.8652" style="stop-color:#0875BB"/>
					<stop  offset="0.9944" style="stop-color:#005B96"/>
				</linearGradient>
				<path class="st10" d="M381.2,337.2c-3.2-15.3-9-26.9-15.4-36.3c-4.3,0.4-8.7,0.5-13.1,0.4c-13-0.2-25.5-2.4-37.2-6.2
					c4.7,8,10.4,14.6,15.9,20.8c9.1,10.3,16.9,19.2,19.8,33.3c2.2,10.6,1.3,23.1-2.7,37c-2.1,7.2-4.9,14.8-8.6,22.8
					c-0.3,0.6-0.5,1.3-0.8,1.9c3.6,0.4,7.5,0.7,11.6,0.7c9.3,0.2,17.4-0.6,24.2-1.9c2.2-6.6,4.1-13.1,5.4-19.5
					C384.2,371.5,384.6,353.7,381.2,337.2z"/>
				<g>
					<path class="st11" d="M413.4,893.8c0.8-41-31.9-74.9-72.9-75.7c-40.2-0.7-73.5,30.6-75.5,70.5c35.6,17.4,83.5,31.4,138.9,40.3
						C409.7,918.5,413.2,906.5,413.4,893.8z"/>
					<path class="st8" d="M265,888.6c0,0.8-0.1,1.6-0.1,2.4c-0.8,41,31.9,74.9,72.9,75.7c28.3,0.5,53.1-14.8,66.1-37.8
						C348.4,920,300.6,906,265,888.6z"/>
					
						<linearGradient id="SVGID_4_" gradientUnits="userSpaceOnUse" x1="160.2145" y1="449.7328" x2="325.8943" y2="449.7328" gradientTransform="matrix(0.9998 1.857699e-02 -1.857699e-02 0.9998 104.7808 419.0903)">
						<stop  offset="0" style="stop-color:#0075CF"/>
						<stop  offset="0.2856" style="stop-color:#077FD2"/>
						<stop  offset="0.7644" style="stop-color:#1B99DB"/>
						<stop  offset="1" style="stop-color:#27A8E0"/>
					</linearGradient>
					<path class="st12" d="M402.5,937.3c-55.7-8.9-104.6-23.1-141.3-41.1l-5-2.5l0.3-5.6c1.1-21.5,10.4-41.5,26.1-56.2
						c15.8-14.8,36.4-22.7,58.1-22.3c45.6,0.8,82.1,38.7,81.2,84.3c-0.3,13.7-3.9,27.3-10.7,39.1l-2.9,5.2L402.5,937.3z"/>
				</g>
				
					<linearGradient id="SVGID_5_" gradientUnits="userSpaceOnUse" x1="346.0782" y1="-321.6893" x2="601.3401" y2="-321.6893" gradientTransform="matrix(0.9779 -0.2089 0.2089 0.9779 -63.4393 595.9377)">
					<stop  offset="0" style="stop-color:#1E75BB"/>
					<stop  offset="0.2856" style="stop-color:#207FC2"/>
					<stop  offset="0.7644" style="stop-color:#2499D5"/>
					<stop  offset="1" style="stop-color:#27A8E0"/>
				</linearGradient>
				<circle class="st13" cx="332.6" cy="182.4" r="127.6"/>
				
					<linearGradient id="SVGID_6_" gradientUnits="userSpaceOnUse" x1="153.2206" y1="-324.9734" x2="800.6193" y2="-324.9734" gradientTransform="matrix(0.9779 -0.2089 0.2089 0.9779 -63.4393 595.9377)">
					<stop  offset="0" style="stop-color:#CBDFF3"/>
					<stop  offset="5.628450e-02" style="stop-color:#C2DBF1"/>
					<stop  offset="0.1499" style="stop-color:#A8D1ED"/>
					<stop  offset="0.2694" style="stop-color:#7FC1E6"/>
					<stop  offset="0.4085" style="stop-color:#46AADD"/>
					<stop  offset="0.5007" style="stop-color:#1C9AD6"/>
					<stop  offset="0.8652" style="stop-color:#0875BB"/>
					<stop  offset="0.9944" style="stop-color:#005B96"/>
				</linearGradient>
				<path class="st14" d="M549.8,268c-21.5,4.6-57.8,4.9-96.2,5.2c-37.4,0.3-76.1,0.7-97.2,5.2s-56.6,20-90.9,35
					c-35.2,15.4-68.5,29.9-89.9,34.5c-71.4,15.2-141.9-30.4-157.1-101.8c-15.3-71.3,30.4-141.8,101.7-157c23.3-5,63.1-2.1,105.4,1
					c36.3,2.6,73.8,5.4,90.9,1.7c17.1-3.6,50.2-21.5,82.2-38.7c37.3-20.1,72.5-39,95.8-44c71.4-15.2,141.9,30.4,157.1,101.8
					C666.8,182.3,621.1,252.8,549.8,268z"/>
				
					<linearGradient id="SVGID_7_" gradientUnits="userSpaceOnUse" x1="167.3224" y1="-324.953" x2="786.3988" y2="-324.953" gradientTransform="matrix(0.9779 -0.2089 0.2089 0.9779 -63.4393 595.9377)">
					<stop  offset="0" style="stop-color:#1E75BB"/>
					<stop  offset="0.2856" style="stop-color:#207FC2"/>
					<stop  offset="0.7644" style="stop-color:#2499D5"/>
					<stop  offset="1" style="stop-color:#27A8E0"/>
				</linearGradient>
				<path class="st15" d="M497.4,23c-41.8,8.9-139.2,74.4-178,82.7S165,94,123.2,102.9c-63.8,13.6-104.5,76.4-90.9,140.3
					s76.4,104.5,140.3,90.9c40.9-8.7,136.6-60.1,180.8-69.5c44.1-9.4,152.5-1.7,193.4-10.4c63.8-13.6,104.5-76.4,90.9-140.3
					C624.1,50,561.3,9.4,497.4,23z"/>
				
					<linearGradient id="SVGID_8_" gradientUnits="userSpaceOnUse" x1="182.5111" y1="-324.9711" x2="388.5611" y2="-324.9711" gradientTransform="matrix(0.9779 -0.2089 0.2089 0.9779 -63.4393 595.9377)">
					<stop  offset="0" style="stop-color:#CBDFF3"/>
					<stop  offset="5.628450e-02" style="stop-color:#C2DBF1"/>
					<stop  offset="0.1499" style="stop-color:#A8D1ED"/>
					<stop  offset="0.2694" style="stop-color:#7FC1E6"/>
					<stop  offset="0.4085" style="stop-color:#46AADD"/>
					<stop  offset="0.5007" style="stop-color:#1C9AD6"/>
					<stop  offset="0.8652" style="stop-color:#0875BB"/>
					<stop  offset="0.9944" style="stop-color:#005B96"/>
				</linearGradient>
				<circle class="st16" cx="147.9" cy="218.5" r="103"/>
				
					<ellipse transform="matrix(0.9779 -0.2089 0.2089 0.9779 -42.3814 35.7173)" class="st8" cx="147.9" cy="218.5" rx="87.3" ry="87.3"/>
				<path class="st6" d="M205.5,171.5c-39.7,30.6-84.6,51.2-130.7,60c3.9,21.8,17.4,41.6,38.5,52.7c36.3,19.1,81.2,5.2,100.4-31
					C228,226,223.7,193.9,205.5,171.5z"/>
				<path class="st17" d="M205.5,171.5c-6.1-7.5-13.8-13.9-22.9-18.7c-36.3-19.1-81.2-5.2-100.4,31c-8,15.2-10.2,32-7.4,47.7
					C120.8,222.7,165.8,202.2,205.5,171.5z"/>
				
					<ellipse transform="matrix(0.9779 -0.2089 0.2089 0.9779 -42.2493 36.168)" class="st8" cx="150.1" cy="218.1" rx="26.8" ry="26.8"/>
				
					<ellipse transform="matrix(0.9779 -0.2089 0.2089 0.9779 -38.5664 38.0392)" class="st6" cx="160.8" cy="201.6" rx="8.9" ry="8.9"/>
				
					<linearGradient id="SVGID_9_" gradientUnits="userSpaceOnUse" x1="566.9062" y1="-324.971" x2="772.9562" y2="-324.971" gradientTransform="matrix(0.9779 -0.2089 0.2089 0.9779 -63.4393 595.9377)">
					<stop  offset="0" style="stop-color:#CBDFF3"/>
					<stop  offset="5.628450e-02" style="stop-color:#C2DBF1"/>
					<stop  offset="0.1499" style="stop-color:#A8D1ED"/>
					<stop  offset="0.2694" style="stop-color:#7FC1E6"/>
					<stop  offset="0.4085" style="stop-color:#46AADD"/>
					<stop  offset="0.5007" style="stop-color:#1C9AD6"/>
					<stop  offset="0.8652" style="stop-color:#0875BB"/>
					<stop  offset="0.9944" style="stop-color:#005B96"/>
				</linearGradient>
				<circle class="st18" cx="523.8" cy="138.2" r="103"/>
				
					<ellipse transform="matrix(0.9779 -0.2089 0.2089 0.9779 -17.313 112.4711)" class="st8" cx="523.8" cy="138.2" rx="87.3" ry="87.3"/>
				<path class="st6" d="M581.3,91.2c-39.7,30.6-84.6,51.2-130.7,60c3.9,21.8,17.4,41.6,38.5,52.7c36.3,19.1,81.2,5.2,100.4-31
					C603.8,145.7,599.6,113.6,581.3,91.2z"/>
				<path class="st17" d="M581.3,91.2c-6.1-7.5-13.8-13.9-22.9-18.7c-36.3-19.1-81.2-5.2-100.4,31c-8,15.2-10.2,32-7.4,47.7
					C496.7,142.4,541.6,121.9,581.3,91.2z"/>
				
					<ellipse transform="matrix(0.9779 -0.2089 0.2089 0.9779 -17.1622 112.8988)" class="st8" cx="525.9" cy="137.7" rx="26.8" ry="26.8"/>
				
					<ellipse transform="matrix(0.9779 -0.2089 0.2089 0.9779 -13.4792 114.7699)" class="st6" cx="536.6" cy="121.2" rx="8.9" ry="8.9"/>
				
					<linearGradient id="SVGID_10_" gradientUnits="userSpaceOnUse" x1="436.6276" y1="-291.05" x2="517.1298" y2="-291.05" gradientTransform="matrix(0.9779 -0.2089 0.2089 0.9779 -63.4393 595.9377)">
					<stop  offset="0" style="stop-color:#CBDFF3"/>
					<stop  offset="5.628450e-02" style="stop-color:#C2DBF1"/>
					<stop  offset="0.1499" style="stop-color:#A8D1ED"/>
					<stop  offset="0.2694" style="stop-color:#7FC1E6"/>
					<stop  offset="0.4085" style="stop-color:#46AADD"/>
					<stop  offset="0.5007" style="stop-color:#1C9AD6"/>
					<stop  offset="0.8652" style="stop-color:#0875BB"/>
					<stop  offset="0.9944" style="stop-color:#005B96"/>
				</linearGradient>
				<path class="st19" d="M350.5,251.1c-14,3-28.7-1.8-38.3-12.4c-9.6-10.6-12.8-25.7-8.4-39.4c4.4-13.6,15.9-24,29.9-27
					s28.7,1.8,38.3,12.4c9.6,10.6,12.8,25.7,8.4,39.4C376,237.7,364.5,248.1,350.5,251.1z"/>
				<path class="st8" d="M335.5,180.7L335.5,180.7c-11.1,2.4-20.1,10.5-23.6,21.3l0,0c-3.5,10.8-1,22.6,6.6,31l0,0
					c7.6,8.4,19.1,12.1,30.2,9.8l0,0c11.1-2.4,20.1-10.5,23.6-21.3l0,0c3.5-10.8,1-22.6-6.6-31l0,0
					C358.1,182,346.6,178.3,335.5,180.7z"/>
			</g>
		</g>
	</g>
</g>
<path class="st6" d="M835.1,151.2c-89,0-161.5,71-163.9,159.4L659,320.7l-27.9,22.9l33.7,12.7l12.9,4.9
	c19.9,68.2,82.8,118,157.4,118c90.5,0,164-73.4,164-164S925.7,151.2,835.1,151.2z"/>
<path class="st20" d="M748.5,322.6l148.9-83.4c3.6-2,8.1-0.7,10,2.9c0.7,1.3,1,2.8,0.9,4.2l-13.2,136.2c-0.4,5-4.8,8.6-9.8,8.2
	c-0.9-0.1-1.7-0.3-2.5-0.6l-43.6-16.9l-24.4,22.9c-1.6,1.6-3.7,2.4-6,2.5c-4.9,0-8.8-3.9-8.9-8.7c0,0,0-0.1,0-0.1v-16.2l58.8-73.8
	c1.3-1.7,1-4.1-0.6-5.4c-0.7-0.5-1.5-0.8-2.4-0.8c-0.9,0-1.8,0.4-2.5,1l-68.1,57.9l-35.8-13.9c-4.5-1.7-6.8-6.7-5.1-11.3
	C745.2,325.2,746.7,323.6,748.5,322.6z"/>
</svg>
